# xmcd
#
# Track frame offsets:
#	150
#	20962
#	38967
#	56172
#	68955
#	92763
#	111045
#	125864
#	141434
#	158885
#	175011
#	191365
#	211623
#	225826
#	241374
#	256324
#	269765
#	288551
#	304583
#	321775
#
# Disc length: 4632 seconds
#
# Revision: 1
# Processed by: cddbd v1.5.2PL0 Copyright (c) Steve Scherf et al.
# Submitted via: audiograbber 1.83.01
#
DISCID=29121614
DTITLE=GERALDINHO LINS - 20 ANOS
DYEAR=1900
DGENRE=FORRÓ
TTITLE0=AGORA SIM
TTITLE1=IMAGINE
TTITLE2=MEU CORAÇÃO, MEU ABRIGO
TTITLE3=PELEJA(PART. CÉSAR MICHILES-FLAUTAS)
TTITLE4=DONA DESSE BEM QUERER(PART. MAESTRO SPOCK-SAX)
TTITLE5=AMOR SINCERO
TTITLE6=AMOR DE SERTÃO(PART. MARIA LINS)
TTITLE7=MENINO BAGUNCEIRO
TTITLE8=EU TE AMO, MEU AMOR
TTITLE9=MARÉ CHEIA
TTITLE10=NAÇÃO NORDESTINA
TTITLE11=NORONHA, MINHA SEREIA
TTITLE12=XOTE DA SAUDADE
TTITLE13=FORRÓ DA LADEIRA
TTITLE14=XOTE CONQUISTADOR
TTITLE15=QUE A GENTE CANTE
TTITLE16=FAÇA ISSO COMIGO NÃO
TTITLE17=O BRILHO DO GALO
TTITLE18=O REI DA BRINCADEIRA
TTITLE19=PRA DESCANSAR(PART. LUCIANA LINS)
EXTD=
EXTT0=
EXTT1=
EXTT2=
EXTT3=
EXTT4=
EXTT5=
EXTT6=
EXTT7=
EXTT8=
EXTT9=
EXTT10=
EXTT11=
EXTT12=
EXTT13=
EXTT14=
EXTT15=
EXTT16=
EXTT17=
EXTT18=
EXTT19=
PLAYORDER=
